<svg width="500" height="500" viewBox="0 0 500 500" fill="none" xmlns="http://www.w3.org/2000/svg">
  <!-- Background -->
  <rect width="500" height="500" rx="12" fill="url(#paint0_linear)" />
  
  <!-- Dashboard Header -->
  <rect x="20" y="20" width="460" height="50" rx="8" fill="url(#paint1_linear)" />
  <circle cx="45" cy="45" r="15" fill="#6366F1" />
  <rect x="70" y="37" width="80" height="16" rx="4" fill="#1E293B" fillOpacity="0.8" />
  <rect x="350" y="37" width="40" height="16" rx="4" fill="#1E293B" fillOpacity="0.5" />
  <rect x="400" y="37" width="40" height="16" rx="4" fill="#1E293B" fillOpacity="0.5" />
  
  <!-- Stats Cards -->
  <rect x="20" y="90" width="105" height="90" rx="8" fill="url(#paint2_linear)" />
  <rect x="32" y="105" width="60" height="12" rx="2" fill="#1E293B" fillOpacity="0.6" />
  <rect x="32" y="130" width="40" height="24" rx="2" fill="#1E293B" />
  <rect x="32" y="160" width="70" height="8" rx="2" fill="#1E293B" fillOpacity="0.4" />
  <circle cx="100" cy="115" r="12" fill="#6366F1" fillOpacity="0.2" />
  <path d="M100 110V120M95 115H105" stroke="#6366F1" strokeWidth="2" strokeLinecap="round" />
  
  <rect x="135" y="90" width="105" height="90" rx="8" fill="url(#paint3_linear)" />
  <rect x="147" y="105" width="60" height="12" rx="2" fill="#1E293B" fillOpacity="0.6" />
  <rect x="147" y="130" width="40" height="24" rx="2" fill="#1E293B" />
  <rect x="147" y="160" width="70" height="8" rx="2" fill="#1E293B" fillOpacity="0.4" />
  <circle cx="215" cy="115" r="12" fill="#10B981" fillOpacity="0.2" />
  <path d="M210 115L213 118L220 111" stroke="#10B981" strokeWidth="2" strokeLinecap="round" strokeLinejoin="round" />
  
  <rect x="250" y="90" width="105" height="90" rx="8" fill="url(#paint4_linear)" />
  <rect x="262" y="105" width="60" height="12" rx="2" fill="#1E293B" fillOpacity="0.6" />
  <rect x="262" y="130" width="40" height="24" rx="2" fill="#1E293B" />
  <rect x="262" y="160" width="70" height="8" rx="2" fill="#1E293B" fillOpacity="0.4" />
  <circle cx="330" cy="115" r="12" fill="#F59E0B" fillOpacity="0.2" />
  <path d="M330 110V116M330 120V120.1" stroke="#F59E0B" strokeWidth="2" strokeLinecap="round" />
  
  <rect x="365" y="90" width="105" height="90" rx="8" fill="url(#paint5_linear)" />
  <rect x="377" y="105" width="60" height="12" rx="2" fill="#1E293B" fillOpacity="0.6" />
  <rect x="377" y="130" width="40" height="24" rx="2" fill="#1E293B" />
  <rect x="377" y="160" width="70" height="8" rx="2" fill="#1E293B" fillOpacity="0.4" />
  <circle cx="445" cy="115" r="12" fill="#EF4444" fillOpacity="0.2" />
  <path d="M441 111L449 119M449 111L441 119" stroke="#EF4444" strokeWidth="2" strokeLinecap="round" />
  
  <!-- Rating Chart -->
  <rect x="20" y="200" width="280" height="280" rx="8" fill="url(#paint6_linear)" />
  <rect x="40" y="220" width="120" height="20" rx="4" fill="#1E293B" fillOpacity="0.8" />
  <rect x="40" y="250" width="80" height="10" rx="2" fill="#1E293B" fillOpacity="0.5" />
  
  <!-- Bar Chart -->
  <rect x="60" y="280" width="30" height="160" rx="4" fill="#6366F1" fillOpacity="0.1" />
  <rect x="60" y="360" width="30" height="80" rx="4" fill="#6366F1" />
  
  <rect x="110" y="280" width="30" height="160" rx="4" fill="#6366F1" fillOpacity="0.1" />
  <rect x="110" y="320" width="30" height="120" rx="4" fill="#6366F1" />
  
  <rect x="160" y="280" width="30" height="160" rx="4" fill="#6366F1" fillOpacity="0.1" />
  <rect x="160" y="300" width="30" height="140" rx="4" fill="#6366F1" />
  
  <rect x="210" y="280" width="30" height="160" rx="4" fill="#6366F1" fillOpacity="0.1" />
  <rect x="210" y="340" width="30" height="100" rx="4" fill="#6366F1" />
  
  <!-- Employee List -->
  <rect x="320" y="200" width="160" height="280" rx="8" fill="url(#paint7_linear)" />
  <rect x="340" y="220" width="100" height="20" rx="4" fill="#1E293B" fillOpacity="0.8" />
  
  <!-- Employee 1 -->
  <rect x="340" y="260" width="120" height="50" rx="6" fill="url(#paint8_linear)" />
  <circle cx="360" cy="285" r="12" fill="#1E293B" />
  <rect x="380" y="275" width="60" height="10" rx="2" fill="#1E293B" fillOpacity="0.8" />
  <rect x="380" y="290" width="40" height="8" rx="2" fill="#1E293B" fillOpacity="0.5" />
  <!-- Stars -->
  <path d="M440 285L442 289L446 290L443 293L444 297L440 295L436 297L437 293L434 290L438 289L440 285Z" fill="#F59E0B" />
  
  <!-- Employee 2 -->
  <rect x="340" y="320" width="120" height="50" rx="6" fill="url(#paint9_linear)" />
  <circle cx="360" cy="345" r="12" fill="#1E293B" />
  <rect x="380" y="335" width="60" height="10" rx="2" fill="#1E293B" fillOpacity="0.8" />
  <rect x="380" y="350" width="40" height="8" rx="2" fill="#1E293B" fillOpacity="0.5" />
  <!-- Stars -->
  <path d="M440 345L442 349L446 350L443 353L444 357L440 355L436 357L437 353L434 350L438 349L440 345Z" fill="#F59E0B" />
  
  <!-- Employee 3 -->
  <rect x="340" y="380" width="120" height="50" rx="6" fill="url(#paint10_linear)" />
  <circle cx="360" cy="405" r="12" fill="#1E293B" />
  <rect x="380" y="395" width="60" height="10" rx="2" fill="#1E293B" fillOpacity="0.8" />
  <rect x="380" y="410" width="40" height="8" rx="2" fill="#1E293B" fillOpacity="0.5" />
  <!-- Stars -->
  <path d="M440 405L442 409L446 410L443 413L444 417L440 415L436 417L437 413L434 410L438 409L440 405Z" fill="#F59E0B" />
  
  <!-- Gradients -->
  <defs>
    <linearGradient id="paint0_linear" x1="0" y1="0" x2="500" y2="500" gradientUnits="userSpaceOnUse">
      <stop stopColor="#F8FAFC" />
      <stop offset="1" stopColor="#F1F5F9" />
    </linearGradient>
    <linearGradient id="paint1_linear" x1="20" y1="20" x2="480" y2="70" gradientUnits="userSpaceOnUse">
      <stop stopColor="#F8FAFC" />
      <stop offset="1" stopColor="#E2E8F0" />
    </linearGradient>
    <linearGradient id="paint2_linear" x1="20" y1="90" x2="125" y2="180" gradientUnits="userSpaceOnUse">
      <stop stopColor="#F8FAFC" />
      <stop offset="1" stopColor="#E2E8F0" />
    </linearGradient>
    <linearGradient id="paint3_linear" x1="135" y1="90" x2="240" y2="180" gradientUnits="userSpaceOnUse">
      <stop stopColor="#F8FAFC" />
      <stop offset="1" stopColor="#E2E8F0" />
    </linearGradient>
    <linearGradient id="paint4_linear" x1="250" y1="90" x2="355" y2="180" gradientUnits="userSpaceOnUse">
      <stop stopColor="#F8FAFC" />
      <stop offset="1" stopColor="#E2E8F0" />
    </linearGradient>
    <linearGradient id="paint5_linear" x1="365" y1="90" x2="470" y2="180" gradientUnits="userSpaceOnUse">
      <stop stopColor="#F8FAFC" />
      <stop offset="1" stopColor="#E2E8F0" />
    </linearGradient>
    <linearGradient id="paint6_linear" x1="20" y1="200" x2="300" y2="480" gradientUnits="userSpaceOnUse">
      <stop stopColor="#F8FAFC" />
      <stop offset="1" stopColor="#E2E8F0" />
    </linearGradient>
    <linearGradient id="paint7_linear" x1="320" y1="200" x2="480" y2="480" gradientUnits="userSpaceOnUse">
      <stop stopColor="#F8FAFC" />
      <stop offset="1" stopColor="#E2E8F0" />
    </linearGradient>
    <linearGradient id="paint8_linear" x1="340" y1="260" x2="460" y2="310" gradientUnits="userSpaceOnUse">
      <stop stopColor="#F8FAFC" />
      <stop offset="1" stopColor="#CBD5E1" />
    </linearGradient>
    <linearGradient id="paint9_linear" x1="340" y1="320" x2="460" y2="370" gradientUnits="userSpaceOnUse">
      <stop stopColor="#F8FAFC" />
      <stop offset="1" stopColor="#CBD5E1" />
    </linearGradient>
    <linearGradient id="paint10_linear" x1="340" y1="380" x2="460" y2="430" gradientUnits="userSpaceOnUse">
      <stop stopColor="#F8FAFC" />
      <stop offset="1" stopColor="#CBD5E1" />
    </linearGradient>
  </defs>
</svg>

